{"asset": {"version": "2.0", "generator": "maya-glTFExport"}, "scene": 0, "scenes": [{"name": "defaultScene", "nodes": [0]}], "nodes": [{"translation": [0.0, 0.0, 0.0], "rotation": [0.0, 0.0, 0.0, 1.0], "scale": [1.0, 1.0, 1.0], "mesh": 0}], "meshes": [{"primitives": [{"mode": 4, "attributes": {"POSITION": 1, "NORMAL": 2, "TEXCOORD_0": 3}, "indices": 0, "material": 0}]}], "materials": [{"pbrMetallicRoughness": {"baseColorFactor": [0.5, 0.5, 0.5, 1.0], "metallicFactor": 0, "roughnessFactor": 1}, "alphaMode": "OPAQUE"}], "buffers": [{"byteLength": 53968, "uri": "data:application/octet-stream;base64,"}], "bufferViews": [{"buffer": 0, "byteOffset": 0, "byteLength": 4944, "target": 34963}, {"buffer": 0, "byteOffset": 4944, "byteLength": 18384, "target": 34962}, {"buffer": 0, "byteOffset": 23328, "byteLength": 18384, "target": 34962}, {"buffer": 0, "byteOffset": 41712, "byteLength": 12256, "target": 34962}], "accessors": [{"bufferView": 0, "byteOffset": 0, "componentType": 5123, "count": 2472, "type": "SCALAR", "max": [1531], "min": [0]}, {"bufferView": 1, "byteOffset": 0, "componentType": 5126, "count": 1532, "type": "VEC3", "max": [0.6071224212646484, 0.8719968795776367, 0.22652988135814667], "min": [-0.6071224212646484, -0.8386077880859375, -0.22652988135814667]}, {"bufferView": 2, "byteOffset": 0, "componentType": 5126, "count": 1532, "type": "VEC3"}, {"bufferView": 3, "byteOffset": 0, "componentType": 5126, "count": 1532, "type": "VEC2"}]}
