{
  "asset": { "version": "2.0", "generator": "maya-glTFExport" },
  "scene": 0,
  "scenes": [{ "name": "defaultScene", "nodes": [0] }],
  "nodes": [
    {
      "translation": [0.0, 0.0, 0.0],
      "rotation": [0.0, 0.0, 0.0, 1.0],
      "scale": [1.0, 1.0, 1.0],
      "mesh": 0
    }
  ],
  "meshes": [
    {
      "primitives": [
        {
          "mode": 4,
          "attributes": { "POSITION": 1, "NORMAL": 2, "TEXCOORD_0": 3 },
          "indices": 0,
          "material": 0
        }
      ]
    }
  ],
  "materials": [
    {
      "pbrMetallicRoughness": {
        "baseColorFactor": [0.5, 0.5, 0.5, 1.0],
        "metallicFactor": 0,
        "roughnessFactor": 1
      },
      "alphaMode": "OPAQUE"
    }
  ],
  "buffers": [
    {
      "byteLength": 50768,
      "uri": "data:application/octet-stream;base64,"
    }
  ],
  "bufferViews": [
    { "buffer": 0, "byteOffset": 0, "byteLength": 4560, "target": 34963 },
    { "buffer": 0, "byteOffset": 4560, "byteLength": 17328, "target": 34962 },
    { "buffer": 0, "byteOffset": 21888, "byteLength": 17328, "target": 34962 },
    { "buffer": 0, "byteOffset": 39216, "byteLength": 11552, "target": 34962 }
  ],
  "accessors": [
    {
      "bufferView": 0,
      "byteOffset": 0,
      "componentType": 5123,
      "count": 2280,
      "type": "SCALAR",
      "max": [1443],
      "min": [0]
    },
    {
      "bufferView": 1,
      "byteOffset": 0,
      "componentType": 5126,
      "count": 1444,
      "type": "VEC3",
      "max": [0.4063267707824707, 0.6702175140380859, 0.2564508318901062],
      "min": [-0.4063267707824707, -0.48695802688598633, -0.2564508318901062]
    },
    {
      "bufferView": 2,
      "byteOffset": 0,
      "componentType": 5126,
      "count": 1444,
      "type": "VEC3"
    },
    {
      "bufferView": 3,
      "byteOffset": 0,
      "componentType": 5126,
      "count": 1444,
      "type": "VEC2"
    }
  ]
}
